<?xml version="1.0" standalone="no"?>
<!DOCTYPE svg PUBLIC "-//W3C//DTD SVG 20010904//EN"
 "http://www.w3.org/TR/2001/REC-SVG-20010904/DTD/svg10.dtd">
<svg version="1.0" xmlns="http://www.w3.org/2000/svg"
 width="585.000000pt" height="563.000000pt" viewBox="0 0 585.000000 563.000000"
 preserveAspectRatio="xMidYMid meet">

<g transform="translate(0.000000,563.000000) scale(0.100000,-0.100000)"
fill="#000000" stroke="none">
<path d="M74 5620 c-11 -4 -33 -22 -47 -40 l-27 -32 0 -2774 0 -2774 2899 0
c2305 0 2901 3 2908 12 4 7 10 66 13 131 3 81 9 120 18 126 10 6 12 52 7 227
-8 286 -10 569 -8 884 1 140 1 734 0 1320 -1 586 -1 1146 1 1245 3 217 -6
1242 -13 1407 -6 137 -25 200 -76 247 l-34 30 -2810 0 c-1545 0 -2819 -4
-2831 -9z m2461 -407 c-1 -24 -2 -88 -3 -144 l-2 -100 -797 3 -798 3 -3 129
c-1 72 -1 135 1 140 3 8 253 11 803 11 l799 0 0 -42z m2365 -100 l0 -143 -347
-2 c-403 -3 -542 -3 -1089 0 l-401 3 5 137 c3 84 9 140 16 145 6 4 417 6 914
5 l902 -2 0 -143z m520 100 c0 -21 3 -75 6 -119 l7 -82 -102 0 -101 -1 0 114
0 114 78 4 c42 1 85 4 95 5 13 2 17 -6 17 -35z m-4845 -78 c4 -53 6 -97 4 -99
-2 -2 -49 -5 -104 -7 l-100 -4 2 88 c0 48 4 94 7 102 4 12 25 15 95 15 l89 0
7 -95z m4811 -405 l64 0 0 -634 0 -634 -117 -4 c-65 -2 -119 -4 -120 -4 -1 1
-3 291 -5 645 l-3 643 59 -6 c32 -3 88 -6 122 -6z m-4792 -50 c12 -12 21 -821
11 -1042 l-7 -178 -119 0 -119 0 0 538 c0 295 -3 573 -6 617 l-7 80 119 -3
c66 -2 123 -7 128 -12z m4130 -1881 l3 -1646 -221 -6 c-122 -4 -231 -4 -242
-1 -21 6 -22 13 -28 167 -4 89 -8 659 -11 1267 -2 608 -8 1150 -13 1205 -12
118 -25 135 -102 135 -62 0 -75 14 -83 89 -4 34 -16 80 -27 103 -11 23 -20 43
-20 44 0 1 13 5 28 9 28 6 166 110 252 190 92 85 119 92 358 91 l102 -1 4
-1646z m-1616 1626 c190 -44 376 -160 486 -304 72 -93 152 -254 175 -351 31
-127 29 -325 -3 -453 -54 -211 -199 -405 -369 -491 -20 -11 -37 -22 -37 -25 0
-3 42 -37 93 -74 208 -153 301 -284 338 -475 15 -82 6 -354 -15 -442 -38 -154
-109 -288 -212 -399 -104 -112 -209 -176 -392 -237 l-77 -26 -987 -5 -988 -6
-1 794 c-1 437 -3 1003 -5 1259 -1 256 0 641 3 855 l6 391 960 2 c821 1 970 0
1025 -13z m-2488 -1650 l0 -155 -122 0 -123 0 -3 150 -2 149 107 4 c60 1 116
4 126 5 16 2 17 -11 17 -153z m4800 -1 l0 -151 -112 -6 c-62 -3 -116 -2 -119
1 -4 4 -9 75 -12 158 l-5 151 124 -1 124 -1 0 -151z m-4816 -756 c8 -115 8
-1040 0 -1090 l-6 -36 -117 -4 c-64 -2 -117 -3 -117 -3 -1 0 -4 273 -7 607
l-5 607 91 4 c51 1 106 4 123 5 l31 2 7 -92z m4844 -530 l2 -597 -120 2 -120
2 0 491 c0 270 -3 539 -7 598 l-6 107 124 -3 124 -3 3 -597z m-1410 -879 l872
-2 0 -145 0 -144 -917 4 -918 4 0 142 c0 155 -1 154 60 147 17 -3 423 -5 903
-6z m-1506 -139 c-1 -74 -5 -136 -8 -139 -3 -3 -365 -7 -804 -9 l-800 -4 0
147 0 146 808 -3 807 -3 -3 -135z m-1941 -10 c-1 -57 -3 -105 -4 -106 -1 -1
-49 -4 -107 -8 l-106 -6 2 107 2 108 93 6 c52 3 100 5 108 5 11 -1 13 -23 12
-106z m4834 -5 l0 -109 -90 3 c-49 1 -92 5 -95 8 -3 2 -7 49 -8 103 l-4 99 89
3 c48 2 93 3 98 3 6 -1 10 -45 10 -110z"/>
<path d="M1790 3943 c-85 -2 -158 -7 -162 -11 -4 -4 -8 -522 -8 -1150 l-1
-1144 428 2 c235 1 543 5 683 9 l255 6 65 37 c68 38 159 125 199 191 37 61 51
169 35 277 -26 174 -110 283 -264 343 -92 35 -147 39 -695 46 l-490 6 -12 205
c-6 113 -12 220 -12 238 l-1 32 253 0 c297 0 757 16 842 30 134 22 270 121
327 238 32 65 33 71 33 197 0 125 -1 133 -31 196 -39 81 -119 163 -192 197
-114 52 -125 53 -627 56 -258 2 -540 1 -625 -1z"/>
</g>
</svg>
